<svg xmlns="http://www.w3.org/2000/svg" width="512" height="512" viewBox="0 0 64 64">
	<defs>
		<style>
			.f,.s{stroke:#000;stroke-linecap:round;stroke-linejoin:round;stroke-width:1;}
			.f{stroke-width:0;opacity:.5;}
			:root{dominant-baseline:hanging;font-size:8px;}
			a{text-decoration:underline;fill:#00f;}
		</style>
		<path id="_bg" fill="#fff" d="M0,0v64h64v-64z"/>
		<g id="_icon">
			<path fill="#6ca" class="f" d="M47,48c-1-1,2-2,3-1c5,5-17,11-9,7c6-3,7-5,6-6z"/>
			<path fill="#888" class="f" d="M52,28c2,2,4,7,2,8m-5-13c1,2-4,2-5,2m-29,1c0-2,4-7,6-5m25,1c2,2-6,3-9,2"/>
			<path fill="none" class="s" d="M52,46c9-16-2-18-2-25m-17-6c-29,1-27,34-17,30m36-2c6,3,9-20-10-25m-14,28c-3,5,2,5,1,3m11-10c0,0-1,1,0,5m-12-5c0,0-1,2,0,5m17-6c-2-2-8-2-7-1m-16,3c-1-1,3-4,7-4m8-22c-10-2-25,6-23,14m32,4c7,4,2,4,7,9m-25-12c-8,0-15,8-12,12m31-11c-4,1-10,0-11-1m-15-9c-2-3-16,6-13,19m23-24c4-15,11-9,4-4m13,11c0-4-13-10-22-4m1,10c-4,5,4,3,8-2"/>
		</g>
		<clipPath id="_hat-clip"><path d="M0,30v34h64v-40h-36z"/></clipPath>
		<g id="_hat">
			<path fill="#fea" class="f" d="M10,22c0,0,5-12,18-12"/>
			<path fill="#888" class="f" d="M54,24c0-7-23,0-23,0"/>
			<path fill="none" class="s" d="M9,35c-17-3,5-10,23-11s39,0,24,6m-48-2c1-26,44-25,46-4m-45,0c0,0,14-7,44-4"/>
		</g>
		<g id="_lease">
			<path fill="none" class="s" d="M0,24h64"/>
		</g>
		<g id="_ear"></g>
	</defs>
	<g>
		<use href="#_bg"/>
		<a href="#default"><text>default</text></a>
		<a href="#hat"><text y="8">hat</text></a>
		<!-- <a href="#lease"><text y="16">lease</text></a> -->
		<!-- <a href="#ear"><text y="16">ear</text></a> -->
	</g>
	<view id="default" viewBox="64 0 64 64"/>
	<g transform="translate(64 0)">
		<use href="#_bg"/><use href="#_icon"/>
	</g>
	<view id="hat" viewBox="128 0 64 64"/>
	<g transform="translate(128 0)">
		<use href="#_bg"/><use href="#_icon" clip-path="url(#_hat-clip)"/>
		<use href="#_hat"/>
	</g>
	<view id="lease" viewBox="192 0 64 64"/>
	<g transform="translate(192 0)">
		<use href="#_bg"/><use href="#_icon"/>
		<use href="#_lease"/>
	</g>
	<view id="ear" viewBox="256 0 64 64"/>
	<g transform="translate(256 0)">
		<use href="#_bg"/><use href="#_icon"/>
		<use href="#_ear"/>
	</g>
</svg>
